<svg width="14" height="14" viewBox="0 0 14 14" fill="none" xmlns="http://www.w3.org/2000/svg">
<circle cx="7" cy="7" r="6.5" fill="#0D28A6" stroke="#0D28A6"/>
<path d="M5.55176 9.11035L6.27441 8.99316C6.42415 9.93066 6.80339 10.3994 7.41211 10.3994C7.74089 10.3994 8.02572 10.2611 8.2666 9.98438C8.50749 9.70443 8.62793 9.3431 8.62793 8.90039C8.62793 8.48372 8.51725 8.14844 8.2959 7.89453C8.07454 7.64062 7.80273 7.51367 7.48047 7.51367C7.34375 7.51367 7.17448 7.54622 6.97266 7.61133L7.05566 6.83984L7.16797 6.84961C7.52279 6.84961 7.81087 6.74056 8.03223 6.52246C8.25358 6.30436 8.36426 6.01302 8.36426 5.64844C8.36426 5.31315 8.27148 5.0446 8.08594 4.84277C7.90039 4.6377 7.67415 4.53516 7.40723 4.53516C7.13053 4.53516 6.89616 4.64258 6.7041 4.85742C6.5153 5.06901 6.39486 5.39128 6.34277 5.82422L5.625 5.66797C5.71615 5.05599 5.92122 4.59375 6.24023 4.28125C6.55924 3.96875 6.94499 3.8125 7.39746 3.8125C7.87272 3.8125 8.27637 3.98828 8.6084 4.33984C8.94043 4.69141 9.10645 5.13411 9.10645 5.66797C9.10645 5.99349 9.03483 6.28158 8.8916 6.53223C8.75163 6.78288 8.55469 6.97982 8.30078 7.12305C8.53516 7.18815 8.72884 7.29557 8.88184 7.44531C9.03483 7.59505 9.15853 7.79525 9.25293 8.0459C9.34733 8.29655 9.39453 8.5765 9.39453 8.88574C9.39453 9.54329 9.20085 10.082 8.81348 10.502C8.42611 10.9186 7.96224 11.127 7.42188 11.127C6.92057 11.127 6.49577 10.9447 6.14746 10.5801C5.79915 10.2155 5.60059 9.72559 5.55176 9.11035Z" fill="white"/>
</svg>
