<svg width="14" height="14" viewBox="0 0 14 14" fill="none" xmlns="http://www.w3.org/2000/svg">
<circle cx="7" cy="7" r="6.5" fill="white" stroke="#0D28A6"/>
<path d="M9.3457 10.1553V11H5.46387C5.4541 10.6582 5.55664 10.2757 5.77148 9.85254C5.98958 9.42936 6.38672 8.92969 6.96289 8.35352C7.63672 7.68294 8.0778 7.16536 8.28613 6.80078C8.49447 6.43294 8.59863 6.09115 8.59863 5.77539C8.59863 5.41081 8.49121 5.11458 8.27637 4.88672C8.06478 4.6556 7.80273 4.54004 7.49023 4.54004C7.15495 4.54004 6.87988 4.66374 6.66504 4.91113C6.4502 5.15853 6.34277 5.51335 6.34277 5.97559L5.60059 5.88281C5.65267 5.19596 5.84635 4.68001 6.18164 4.33496C6.52018 3.98665 6.96452 3.8125 7.51465 3.8125C8.11361 3.8125 8.56608 4.01432 8.87207 4.41797C9.18132 4.82161 9.33594 5.2806 9.33594 5.79492C9.33594 6.25065 9.21549 6.68848 8.97461 7.1084C8.73372 7.52507 8.27637 8.08171 7.60254 8.77832C7.17285 9.21777 6.89453 9.51725 6.76758 9.67676C6.64388 9.83626 6.54297 9.99577 6.46484 10.1553H9.3457Z" fill="black"/>
</svg>
